<svg width="225" height="75" viewBox="0 0 225 75" fill="none" xmlns="http://www.w3.org/2000/svg">
<path d="M129.928 56.616H134.92C136.952 56.616 138.472 56.904 138.472 58.6C138.472 60.312 136.952 60.6 134.92 60.6H129.928V56.616ZM128.52 67H129.928V61.848H134.504L138.248 67H139.992L136.152 61.816C137.56 61.752 139.816 61.048 139.816 58.616C139.816 55.768 137.096 55.368 135.24 55.368H128.52V67ZM150.003 64.52C149.475 65.176 148.755 66.152 146.595 66.152C144.419 66.152 143.155 64.648 143.027 63.08H151.251C151.315 59.768 148.979 58.376 146.307 58.376C143.731 58.376 141.731 60.12 141.731 62.776C141.731 65.336 143.651 67.256 146.467 67.256C149.315 67.256 150.147 66.168 151.011 65.256L150.003 64.52ZM143.075 61.976C143.443 60.44 144.515 59.48 146.419 59.48C148.403 59.48 149.587 60.6 149.843 61.976H143.075ZM161.299 61.08C161.299 58.936 159.123 58.376 157.219 58.376C154.307 58.376 153.395 59.576 152.915 60.168L153.891 60.84C154.307 60.36 155.091 59.432 157.315 59.432C158.643 59.432 160.003 59.864 160.003 61V61.32C156.739 61.704 152.403 61.816 152.403 64.712C152.403 66.872 154.435 67.256 155.811 67.256C157.411 67.256 158.771 66.776 159.987 65.992C159.987 66.328 160.083 66.744 160.147 67H161.443C161.363 66.552 161.299 66.2 161.299 65.704V61.08ZM160.003 64.888C159.171 65.336 157.555 66.2 155.747 66.2C155.107 66.2 153.635 66.024 153.635 64.712C153.635 63.096 156.195 62.744 160.003 62.376V64.888ZM171.619 64.376C170.819 65.24 169.379 66.152 167.987 66.152C165.715 66.152 164.371 64.648 164.371 62.92C164.371 60.376 166.227 59.48 167.955 59.48C169.763 59.48 170.851 60.328 171.619 61.128V64.376ZM171.619 55.368V59.784C170.467 58.936 169.603 58.376 167.875 58.376C164.291 58.376 163.075 60.952 163.075 62.888C163.075 64.792 164.419 67.256 167.651 67.256C169.571 67.256 170.419 66.712 171.683 65.688L171.843 67H173.011C172.995 66.744 172.915 65.656 172.915 65.432V55.368H171.619ZM181.027 67H182.323V60.952C182.867 60.44 183.939 59.48 185.427 59.48C187.235 59.48 187.235 60.92 187.235 61.432V67H188.531V60.952C189.075 60.44 190.147 59.48 191.603 59.48C193.443 59.48 193.443 60.92 193.443 61.432V67H194.739V60.952C194.739 58.536 192.435 58.376 191.667 58.376C190.435 58.376 189.571 58.76 188.259 59.864C187.923 59.256 187.427 58.376 185.603 58.376C184.227 58.376 183.235 58.984 182.275 59.8V58.632H181.027V67ZM201.219 67.256C204.067 67.256 206.035 65.624 206.035 62.664C206.035 60.28 204.163 58.376 201.219 58.376C198.275 58.376 196.387 60.28 196.387 62.664C196.387 65.624 198.371 67.256 201.219 67.256ZM201.219 66.152C199.027 66.152 197.683 64.824 197.683 62.824C197.683 61.304 198.691 59.48 201.219 59.48C203.747 59.48 204.739 61.304 204.739 62.824C204.739 64.824 203.411 66.152 201.219 66.152ZM207.747 67H209.043V61.992C209.091 61.752 210.419 59.624 212.259 59.624C212.819 59.624 213.139 59.72 213.299 59.736V58.44C213.059 58.392 212.819 58.376 212.531 58.376C210.851 58.376 209.795 59.528 209.043 60.376V58.632H207.747V67ZM222.44 64.52C221.912 65.176 221.192 66.152 219.032 66.152C216.856 66.152 215.592 64.648 215.464 63.08H223.688C223.752 59.768 221.416 58.376 218.744 58.376C216.168 58.376 214.168 60.12 214.168 62.776C214.168 65.336 216.088 67.256 218.904 67.256C221.752 67.256 222.584 66.168 223.448 65.256L222.44 64.52ZM215.512 61.976C215.88 60.44 216.952 59.48 218.856 59.48C220.84 59.48 222.024 60.6 222.28 61.976H215.512Z" fill="#CD9A3D"/>
<path d="M48.672 60.904C28.704 60.904 11.52 60.616 6.72 60.328C6.144 60.808 6.048 62.248 6.816 62.632C11.904 62.248 27.84 61.96 48.48 61.96C69.12 61.96 83.904 62.248 89.184 62.632C89.76 62.248 89.856 60.808 89.088 60.328C84.48 60.616 68.64 60.904 48.672 60.904Z" fill="#D0A049"/>
</svg>
